<?xml version="1.0" encoding="UTF-8"?>
<!DOCTYPE svg PUBLIC "-//W3C//DTD SVG 1.1//EN" "http://www.w3.org/Graphics/SVG/1.1/DTD/svg11.dtd">
<svg xmlns="http://www.w3.org/2000/svg" version="1.1" width="2100px" height="1500px" style="shape-rendering:geometricPrecision; text-rendering:geometricPrecision; image-rendering:optimizeQuality; fill-rule:evenodd; clip-rule:evenodd" xmlns:xlink="http://www.w3.org/1999/xlink">
<g><path style="opacity:0.85" fill="#1876f2" d="M 798.5,438.5 C 804.291,437.489 809.124,439.156 813,443.5C 815.386,447.794 814.886,451.627 811.5,455C 801.99,461.064 795.323,458.897 791.5,448.5C 792.304,444.04 794.637,440.707 798.5,438.5 Z"/></g>
<g><path style="opacity:0.986" fill="#1876f2" d="M 386.5,479.5 C 406.503,479.333 426.503,479.5 446.5,480C 447.416,480.374 448.25,480.874 449,481.5C 450.065,484.375 450.565,487.375 450.5,490.5C 449.927,501.157 449.593,511.824 449.5,522.5C 449.669,539.199 450.169,555.865 451,572.5C 449.687,573.573 448.187,574.24 446.5,574.5C 390.857,573.505 335.357,573.171 280,573.5C 262.933,574.872 246.1,577.706 229.5,582C 178.083,599.474 147.583,634.974 138,688.5C 132.12,733.836 143.786,773.836 173,808.5C 194.863,829.679 221.029,842.179 251.5,846C 266.612,848.067 281.445,849.567 296,850.5C 315.738,850.58 335.571,850.414 355.5,850C 356.66,827.906 356.827,805.739 356,783.5C 352.025,781.968 347.858,781.302 343.5,781.5C 340.248,781.521 337.081,781.854 334,782.5C 307,786.345 284.667,778.012 267,757.5C 259.773,745.219 256.273,731.885 256.5,717.5C 253.416,678.463 270.749,654.63 308.5,646C 355.833,645.333 403.167,645.333 450.5,646C 451.399,744.103 451.899,842.269 452,940.5C 451.598,941.872 451.098,943.205 450.5,944.5C 387.836,945.667 325.169,945.833 262.5,945C 218.125,940.075 176.125,927.408 136.5,907C 59.5113,857.536 22.678,786.703 26,694.5C 34.855,608.906 77.6883,547.073 154.5,509C 190.539,493.24 228.206,483.907 267.5,481C 307.335,480.833 347.002,480.333 386.5,479.5 Z"/></g>
<g><path style="opacity:0.983" fill="#f8a22f" d="M 500.5,482.5 C 561.516,491.256 613.35,517.59 656,561.5C 680.076,589.477 697.243,621.311 707.5,657C 707.167,657.333 706.833,657.667 706.5,658C 710.956,683.938 712.456,710.105 711,736.5C 707.383,780.987 691.383,820.654 663,855.5C 652.887,865.613 642.721,875.779 632.5,886C 593.702,917.727 549.369,936.893 499.5,943.5C 499.333,911.165 499.5,878.832 500,846.5C 571.72,821.486 605.553,771.319 601.5,696C 593.234,635.733 559.901,597.067 501.5,580C 499.667,579.5 498.5,578.333 498,576.5C 497.333,545.833 497.333,515.167 498,484.5C 498.995,483.934 499.828,483.267 500.5,482.5 Z"/></g>
<g><path style="opacity:0.917" fill="#f8a22f" d="M 838.5,493.5 C 855.46,492.962 861.96,500.962 858,517.5C 856.437,520.728 853.937,522.895 850.5,524C 835.98,529.016 826.98,524.183 823.5,509.5C 825.147,500.858 830.147,495.524 838.5,493.5 Z"/></g>
<g><path style="opacity:0.921" fill="#00d800" d="M 769.5,508.5 C 786.455,506.289 793.955,513.623 792,530.5C 789.592,536.468 785.092,539.634 778.5,540C 766.117,541.649 759.117,536.316 757.5,524C 758.365,516.313 762.365,511.146 769.5,508.5 Z"/></g>
<g><path style="opacity:0.923" fill="#f8a22f" d="M 984.5,652.5 C 999.155,652.332 1005.66,659.665 1004,674.5C 1000.92,686.284 993.754,690.117 982.5,686C 973.923,678.04 972.423,668.873 978,658.5C 980.063,656.266 982.229,654.266 984.5,652.5 Z"/></g>
<g><path style="opacity:0.927" fill="#00d800" d="M 1164.5,652.5 C 1174.48,651.006 1180.98,655.006 1184,664.5C 1185.85,672.933 1183.69,680.1 1177.5,686C 1167.08,690.376 1159.91,687.209 1156,676.5C 1153.81,666.552 1156.65,658.552 1164.5,652.5 Z"/></g>
<g><path style="opacity:0.952" fill="#1876f2" d="M 1525.5,657.5 C 1546.65,656.113 1565.31,662.113 1581.5,675.5C 1576.11,682.315 1570.28,688.648 1564,694.5C 1544.81,681.831 1525.31,681.331 1505.5,693C 1486.79,709.519 1481.62,729.686 1490,753.5C 1502.56,776.522 1521.72,785.022 1547.5,779C 1561.17,774.829 1568.84,765.662 1570.5,751.5C 1558.83,751.5 1547.17,751.5 1535.5,751.5C 1535.5,743.5 1535.5,735.5 1535.5,727.5C 1556.17,727.5 1576.83,727.5 1597.5,727.5C 1601.57,757.172 1591.57,780.672 1567.5,798C 1537.46,812.817 1509.12,810.15 1482.5,790C 1458.84,767.516 1451.34,740.683 1460,709.5C 1471.63,679.124 1493.46,661.791 1525.5,657.5 Z"/></g>
<g><path style="opacity:0.948" fill="#1876f2" d="M 1409.5,658.5 C 1418.83,658.5 1428.17,658.5 1437.5,658.5C 1437.5,707.5 1437.5,756.5 1437.5,805.5C 1428.17,805.5 1418.83,805.5 1409.5,805.5C 1409.5,756.5 1409.5,707.5 1409.5,658.5 Z"/></g>
<g><path style="opacity:0.949" fill="#1876f2" d="M 1854.5,658.5 C 1863.83,658.5 1873.17,658.5 1882.5,658.5C 1882.33,684.502 1882.5,710.502 1883,736.5C 1895.2,723.967 1907.03,711.134 1918.5,698C 1924.4,696.876 1930.4,696.376 1936.5,696.5C 1941.83,696.833 1947.17,697.167 1952.5,697.5C 1938.17,712.833 1923.83,728.167 1909.5,743.5C 1926.82,764.154 1944.49,784.488 1962.5,804.5C 1951.85,805.666 1941.18,805.832 1930.5,805C 1917.3,790.797 1904.46,776.297 1892,761.5C 1889,764.5 1886,767.5 1883,770.5C 1882.5,782.162 1882.33,793.829 1882.5,805.5C 1873.17,805.5 1863.83,805.5 1854.5,805.5C 1854.5,756.5 1854.5,707.5 1854.5,658.5 Z"/></g>
<g><path style="opacity:0.962" fill="#1876f2" d="M 834.5,659.5 C 855.863,659.11 877.197,659.61 898.5,661C 935.947,670.272 955.614,694.105 957.5,732.5C 956.703,765.125 941.369,787.958 911.5,801C 905.944,802.806 900.278,804.139 894.5,805C 874.503,805.5 854.503,805.667 834.5,805.5C 834.5,756.833 834.5,708.167 834.5,659.5 Z M 862.5,686.5 C 873.54,686.215 884.54,686.715 895.5,688C 917.12,694.518 928.453,709.185 929.5,732C 929.415,751.707 920.748,766.04 903.5,775C 899.943,776.408 896.276,777.408 892.5,778C 882.506,778.5 872.506,778.666 862.5,778.5C 862.5,747.833 862.5,717.167 862.5,686.5 Z"/></g>
<g><path style="opacity:0.95" fill="#1876f2" d="M 1212.5,669.5 C 1221.5,669.5 1230.5,669.5 1239.5,669.5C 1239.5,678.5 1239.5,687.5 1239.5,696.5C 1247.17,696.334 1254.84,696.5 1262.5,697C 1263.48,704.747 1263.82,712.58 1263.5,720.5C 1255.5,720.5 1247.5,720.5 1239.5,720.5C 1239.05,739.555 1239.55,758.555 1241,777.5C 1241.5,779.333 1242.67,780.5 1244.5,781C 1250.96,781.849 1257.3,781.349 1263.5,779.5C 1263.83,787.196 1263.5,794.862 1262.5,802.5C 1259.34,804.163 1256.01,805.33 1252.5,806C 1245.5,806.667 1238.5,806.667 1231.5,806C 1221.32,803.824 1215.16,797.658 1213,787.5C 1212.5,765.169 1212.33,742.836 1212.5,720.5C 1207.5,720.5 1202.5,720.5 1197.5,720.5C 1197.5,712.5 1197.5,704.5 1197.5,696.5C 1202.5,696.5 1207.5,696.5 1212.5,696.5C 1212.5,687.5 1212.5,678.5 1212.5,669.5 Z"/></g>
<g><path style="opacity:0.95" fill="#1876f2" d="M 1067.5,694.5 C 1079.33,693.955 1090,697.122 1099.5,704C 1102.27,706.383 1104.44,709.217 1106,712.5C 1106.5,707.177 1106.67,701.844 1106.5,696.5C 1115.83,696.5 1125.17,696.5 1134.5,696.5C 1134.67,734.501 1134.5,772.501 1134,810.5C 1129.77,829.739 1117.94,841.573 1098.5,846C 1085.83,847.976 1073.16,847.976 1060.5,846C 1056.74,845.08 1053.24,843.58 1050,841.5C 1049.17,833.812 1049.34,826.145 1050.5,818.5C 1063.65,824.422 1077.32,825.922 1091.5,823C 1097.46,821.377 1101.96,817.877 1105,812.5C 1106.51,805.233 1106.85,797.899 1106,790.5C 1099.88,799.61 1091.38,805.11 1080.5,807C 1055.44,808.917 1036.61,799.084 1024,777.5C 1018.39,760.953 1018.06,744.286 1023,727.5C 1032.33,708.991 1047.17,697.991 1067.5,694.5 Z M 1072.5,719.5 C 1093.73,719.733 1105.4,730.4 1107.5,751.5C 1105,774.259 1092.33,784.426 1069.5,782C 1057.31,779.14 1049.81,771.64 1047,759.5C 1043.21,738.028 1051.71,724.695 1072.5,719.5 Z"/></g>
<g><path style="opacity:0.95" fill="#1876f2" d="M 1323.5,694.5 C 1334.98,694.116 1345.31,697.283 1354.5,704C 1357.43,706.264 1359.6,709.098 1361,712.5C 1361.5,707.177 1361.67,701.844 1361.5,696.5C 1370.83,696.5 1380.17,696.5 1389.5,696.5C 1389.5,732.833 1389.5,769.167 1389.5,805.5C 1380.17,805.5 1370.83,805.5 1361.5,805.5C 1361.67,800.489 1361.5,795.489 1361,790.5C 1350.57,804.205 1336.74,809.705 1319.5,807C 1295.53,802.362 1280.7,788.196 1275,764.5C 1269.95,726.103 1286.12,702.769 1323.5,694.5 Z M 1327.5,719.5 C 1355.88,721.726 1366.71,736.726 1360,764.5C 1352.42,778.707 1340.59,784.54 1324.5,782C 1312.33,779.167 1304.83,771.667 1302,759.5C 1298.22,738.02 1306.72,724.687 1327.5,719.5 Z"/></g>
<g><path style="opacity:0.947" fill="#1876f2" d="M 1662.5,694.5 C 1704.18,697.515 1723.18,719.848 1719.5,761.5C 1692.83,761.167 1666.16,761.5 1639.5,762.5C 1642.8,773.638 1650.14,780.471 1661.5,783C 1667.83,783.667 1674.17,783.667 1680.5,783C 1686.85,781.141 1692.85,778.807 1698.5,776C 1703.35,780.681 1708.02,785.515 1712.5,790.5C 1700.81,802.499 1686.48,808.165 1669.5,807.5C 1644.28,807.157 1626.12,795.823 1615,773.5C 1606.18,746.662 1612.35,724.162 1633.5,706C 1642.46,700.076 1652.12,696.243 1662.5,694.5 Z M 1659.5,719.5 C 1676.84,717.059 1688.5,723.892 1694.5,740C 1676.17,740.667 1657.83,740.667 1639.5,740C 1643.02,729.983 1649.69,723.149 1659.5,719.5 Z"/></g>
<g><path style="opacity:0.947" fill="#1876f2" d="M 1781.5,694.5 C 1823.18,697.511 1842.18,719.844 1838.5,761.5C 1811.83,761.167 1785.16,761.5 1758.5,762.5C 1761.8,773.638 1769.14,780.471 1780.5,783C 1786.5,783.667 1792.5,783.667 1798.5,783C 1805.28,781.424 1811.61,779.091 1817.5,776C 1822.35,780.681 1827.02,785.515 1831.5,790.5C 1819.81,802.499 1805.48,808.165 1788.5,807.5C 1747.92,804.756 1728.75,783.089 1731,742.5C 1734.74,721.77 1746.24,707.27 1765.5,699C 1770.87,697.16 1776.21,695.66 1781.5,694.5 Z M 1778.5,719.5 C 1795.84,717.059 1807.5,723.892 1813.5,740C 1795.17,740.667 1776.83,740.667 1758.5,740C 1762.02,729.983 1768.69,723.149 1778.5,719.5 Z"/></g>
<g><path style="opacity:0.947" fill="#1876f2" d="M 2006.5,694.5 C 2026.55,693.436 2041.05,701.77 2050,719.5C 2050.49,720.793 2050.66,722.127 2050.5,723.5C 2043.4,724.691 2036.4,726.358 2029.5,728.5C 2027.01,727.239 2025.17,725.239 2024,722.5C 2016.64,715.91 2009.3,715.91 2002,722.5C 2000.35,727.846 2001.85,732.013 2006.5,735C 2016.17,738.667 2025.83,742.333 2035.5,746C 2055.37,756.959 2059.87,772.459 2049,792.5C 2036.45,805.103 2021.29,809.937 2003.5,807C 1986.14,804.138 1974.8,794.305 1969.5,777.5C 1976.34,774.706 1983.34,772.373 1990.5,770.5C 1991.44,770.608 1992.28,770.941 1993,771.5C 1994.29,775.24 1996.46,778.407 1999.5,781C 2007.87,785.739 2016.21,785.739 2024.5,781C 2028.76,775.97 2028.42,771.303 2023.5,767C 2015.41,763.079 2007.07,759.746 1998.5,757C 1987.31,752.474 1979.47,744.641 1975,733.5C 1972.22,719.573 1976.72,708.74 1988.5,701C 1994.29,697.905 2000.29,695.739 2006.5,694.5 Z"/></g>
<g><path style="opacity:0.943" fill="#1876f2" d="M 975.5,696.5 C 984.833,696.5 994.167,696.5 1003.5,696.5C 1003.5,732.833 1003.5,769.167 1003.5,805.5C 994.167,805.5 984.833,805.5 975.5,805.5C 975.5,769.167 975.5,732.833 975.5,696.5 Z"/></g>
<g><path style="opacity:0.939" fill="#1876f2" d="M 1155.5,696.5 C 1164.5,696.5 1173.5,696.5 1182.5,696.5C 1182.5,732.833 1182.5,769.167 1182.5,805.5C 1173.17,805.5 1163.83,805.5 1154.5,805.5C 1154.17,769.094 1154.51,732.761 1155.5,696.5 Z"/></g>
</svg>
